<?xml version="1.0" encoding="UTF-8"?>
<svg id="icon" xmlns="http://www.w3.org/2000/svg" viewBox="0 0 48 48">
  <path d="M12,4c-4.42,0-8,3.58-8,8s3.58,8,8,8,8-3.58,8-8-3.58-8-8-8ZM12,16c-2.21,0-4-1.79-4-4s1.79-4,4-4,4,1.79,4,4-1.79,4-4,4ZM36,4c-4.42,0-8,3.58-8,8s3.58,8,8,8,8-3.58,8-8-3.58-8-8-8ZM36,16c-2.21,0-4-1.79-4-4s1.79-4,4-4,4,1.79,4,4-1.79,4-4,4ZM24,28c-4.42,0-8,3.58-8,8s3.58,8,8,8,8-3.58,8-8-3.58-8-8-8ZM24,40c-2.21,0-4-1.79-4-4s1.79-4,4-4,4,1.79,4,4-1.79,4-4,4ZM0,28v4c2.21,0,4,1.79,4,4s-1.79,4-4,4v4c4.42,0,8-3.58,8-8S4.42,28,0,28ZM48,32v-4c-4.42,0-8,3.58-8,8s3.58,8,8,8v-4c-2.21,0-4-1.79-4-4s1.79-4,4-4Z"/>
</svg>