<?xml version="1.0" encoding="UTF-8"?>
<svg id="_レイヤー_1" data-name="レイヤー_1" xmlns="http://www.w3.org/2000/svg" version="1.1" viewBox="0 0 400.06 63.33">
  <defs>
    <style>
      .st0 {
        fill: #1b002d;
      }
    </style>
  </defs>
  <g>
    <path class="st0" d="M12.61,1.06v49.92h30.87v11.29H0V1.06h12.61Z"/>
    <path class="st0" d="M95.43,1.06v11.02h-33.07v13.67h29.99v10.67h-29.99v14.82h33.69v11.02h-46.3V1.06h45.69Z"/>
    <path class="st0" d="M160.17,28.93v33.34h-11.11v-8.73c-4.06,5.91-10.41,9.79-20.2,9.79-16.85,0-28.49-13.05-28.49-31.66S112.19,0,131.32,0c14.82,0,26.64,7.85,28.58,21.78h-13.23c-1.59-7.23-8.03-11.11-15.17-11.11-10.94,0-17.9,8.73-17.9,20.99,0,12.88,7.23,21.17,17.82,21.17,8.38,0,15.61-4.94,16.67-13.67h-15.52v-10.23h27.61Z"/>
    <path class="st0" d="M182.65,49.21l-4.85,13.05h-13.05L187.59,1.06h16.14l22.84,61.21h-13.05l-4.85-13.05h-26.02ZM205.32,38.81l-9.61-27.16-9.61,27.16h19.23Z"/>
    <path class="st0" d="M244.3,1.06v49.92h30.87v11.29h-43.48V1.06h12.61Z"/>
  </g>
  <polygon class="st0" points="387.88 46.57 360.19 1.05 344.93 1.05 344.93 62.27 357.19 62.27 357.19 16.84 384.71 62.27 400.06 62.27 400.06 1.05 387.88 1.05 387.88 46.57"/>
  <path class="st0" d="M307.2,0c-17.49,0-31.66,14.18-31.66,31.66s14.18,31.66,31.66,31.66,31.66-14.18,31.66-31.66S324.69,0,307.2,0Z"/>
</svg>
