<?xml version="1.0" encoding="UTF-8"?>
<svg id="icon" xmlns="http://www.w3.org/2000/svg" viewBox="0 0 48 48">
  <path d="M11.3,41.7h11.2v2.6h-13.8v-18.8h2.6v16.2ZM39.3,35.18l-2.6,2.6v3.92h-11.2v2.6h13.8v-9.12ZM36.7,15h2.6v-2.54L30.54,3.7H8.7v18.8h2.6V6.3h16.7v8.7h8.7ZM45.01,19.85c1.48,1.48,1.48,3.89,0,5.38l-2.01,2.01-3.7,3.7-2.6,2.6-.46.46-4.64,4.64h-6.38v-6.38l.28-.28,11.2-11.2,1.94-1.94c.2-.2.43-.37.66-.52,1.12-.71,2.53-.76,3.7-.19.36.18.71.4,1.01.71l1,1ZM40.3,26.26l-1-1-1.7-1.7-.9.9-8.78,8.78.76.76,1.94,1.94,1.94-1.94,4.14-4.14,2.6-2.6,1-1Z" style="fill: #000; stroke-width: 0px;"/>
</svg>