<?xml version="1.0" encoding="UTF-8"?>
<svg id="icon" xmlns="http://www.w3.org/2000/svg" viewBox="0 0 48 48">
  <path d="M34.93,25.93l-12.84-12.84,1.86-1.86,1.84,1.84-.02.02,9.16,9.16.02-.02,1.84,1.84-1.86,1.86ZM42.01,4.17l-3.15,3.15c-3.55-2.66-8.62-2.38-11.85.85l-.94.94,1.84,1.84.94-.94c2.53-2.52,6.64-2.53,9.16,0,1.22,1.22,1.9,2.85,1.9,4.58s-.67,3.36-1.9,4.58l-.94.94,1.84,1.84.94-.94c1.71-1.71,2.66-3.99,2.66-6.42,0-1.99-.64-3.87-1.81-5.43l3.15-3.15-1.84-1.84ZM9,40.86c1.56,1.17,3.44,1.81,5.43,1.81,2.42,0,4.7-.94,6.42-2.66l.94-.94-1.84-1.84-.94.94c-1.22,1.22-2.85,1.9-4.58,1.9s-3.36-.67-4.58-1.9c-1.22-1.22-1.9-2.85-1.9-4.58s.67-3.36,1.9-4.58l.94-.94-1.84-1.84-.94.94c-1.71,1.71-2.66,3.99-2.66,6.42,0,1.99.64,3.87,1.81,5.43l-3.15,3.15,1.84,1.84,3.15-3.15ZM26.01,25.67l-4.83,4.83-3.66-3.66,4.83-4.83-1.84-1.84-4.83,4.83-2.75-2.75-1.86,1.86,1.84,1.84.02-.02,9.16,9.16-.02.02,1.84,1.84,1.86-1.86-2.75-2.75,4.83-4.83-1.84-1.84Z" style="fill: #000; stroke-width: 0px;"/>
</svg>